<svg version="1.1" id="Layer_1" xmlns="http://www.w3.org/2000/svg" xmlns:xlink="http://www.w3.org/1999/xlink" x="0px" y="0px"
	 width="100%" viewBox="0 0 500 500" enable-background="new 0 0 500 500" xml:space="preserve">
<path fill="#000000" opacity="1.000000" stroke="none" 
	d="
M280.000000,501.000000 
	C186.666687,501.000000 93.833374,501.000000 1.000050,501.000000 
	C1.000033,334.333405 1.000033,167.666794 1.000017,1.000139 
	C167.666565,1.000093 334.333130,1.000093 500.999756,1.000046 
	C500.999847,167.666519 500.999847,334.333038 500.999939,500.999786 
	C427.500000,501.000000 354.000000,501.000000 280.000000,501.000000 
M444.981689,255.506805 
	C444.981689,255.506805 444.822571,255.092529 445.120789,254.379486 
	C445.742676,252.742294 446.658661,251.152695 446.932831,249.459213 
	C447.862823,243.714279 448.553375,237.930847 449.360413,232.165634 
	C449.849609,228.670929 449.385223,226.894958 445.209137,228.893768 
	C432.240509,235.100983 418.513794,238.962372 404.195770,239.892914 
	C386.119080,241.067734 368.301392,239.738358 351.739532,230.330811 
	C349.839020,229.524078 347.938477,228.717331 346.014679,227.977356 
	C346.014679,227.977356 346.079895,227.950104 345.781830,227.306183 
	C343.866699,226.498474 341.951569,225.690750 340.024902,224.971909 
	C340.024902,224.971909 340.114014,224.981277 339.935974,224.424088 
	C339.595123,224.338654 339.254272,224.253220 338.198700,224.020660 
	C331.083618,219.345917 324.407166,214.364700 318.160095,208.325989 
	C311.340607,201.733978 305.532288,194.634537 300.545654,186.841110 
	C293.251984,175.442169 288.017456,162.998886 285.311157,149.694992 
	C283.720764,141.876678 282.955719,133.890472 281.561981,125.153275 
	C279.573120,125.102180 277.584259,125.008415 275.595367,125.006279 
	C233.752686,124.961441 191.909988,124.926933 149.981598,124.097206 
	C149.363235,121.024055 148.744873,117.950897 148.047363,114.237701 
	C147.984970,113.812401 147.922592,113.387100 147.930588,112.082069 
	C146.981583,104.686256 146.032578,97.290451 145.026596,89.250381 
	C144.977005,88.822220 144.927414,88.394058 144.947952,87.304161 
	C144.666061,86.506050 144.384171,85.707939 144.033615,84.266014 
	C143.979248,83.837975 143.924896,83.409935 143.897095,82.348602 
	C143.550949,81.591621 143.204788,80.834648 142.678513,79.380379 
	C141.641861,76.962349 140.537262,74.570900 139.579834,72.121895 
	C134.198990,58.358334 124.061478,49.252728 110.673126,43.953575 
	C103.339462,41.050892 95.476082,39.440483 87.792450,37.478874 
	C76.278450,34.539375 64.712433,31.803560 52.879078,28.574678 
	C52.659428,28.295982 52.372505,28.146496 51.284588,28.047861 
	C50.548180,28.001558 49.811768,27.955257 48.547688,27.429495 
	C47.379833,27.335564 46.211979,27.241634 44.556736,27.057056 
	C44.556736,27.057056 44.064880,26.995014 43.647736,26.533081 
	C42.732460,26.684092 41.817181,26.835102 40.263359,27.022070 
	C39.840443,27.073637 39.417526,27.125204 38.330738,27.152485 
	C37.180950,27.755331 36.031158,28.358177 34.201519,29.066307 
	C31.849819,32.091648 28.179712,34.810020 27.390606,38.199184 
	C24.901751,48.888676 29.763414,56.539867 40.730381,59.180904 
	C57.794121,63.290146 74.735649,67.904968 91.784798,72.077415 
	C102.585266,74.720627 110.060936,80.884956 112.611252,91.784782 
	C114.071106,98.024048 114.237701,104.565369 114.994659,110.969742 
	C116.430489,123.117867 117.872261,135.265289 119.311363,147.413040 
	C120.887604,160.718506 122.540749,174.015472 124.015160,187.332214 
	C125.180641,197.858658 126.023773,208.420837 127.195328,218.946518 
	C128.713181,232.583603 130.422836,246.199265 132.035416,259.825867 
	C133.472839,271.972504 134.867203,284.124268 136.322754,296.268707 
	C138.191467,311.860199 140.059433,327.451996 142.014496,343.032806 
	C142.893494,350.037842 143.982727,357.016510 144.625519,364.609619 
	C132.211700,370.048615 122.554199,378.663422 116.256996,390.607025 
	C104.448151,413.004242 108.903816,444.634399 130.212738,461.696747 
	C143.019760,471.951508 157.131882,477.117310 173.764038,475.113922 
	C190.793488,473.062653 204.608612,465.511658 214.575073,451.696320 
	C223.141556,439.821625 227.552597,426.432831 224.991333,411.596924 
	C223.850952,404.991486 221.759705,398.550262 221.021820,392.039062 
	C250.111374,392.033783 279.200958,392.049744 308.290497,392.015533 
	C326.904816,391.993622 345.519073,391.897644 364.702515,392.015625 
	C364.696472,392.673279 364.904816,393.430328 364.652802,393.973938 
	C359.747772,404.555389 358.644623,415.881744 360.415802,427.042908 
	C363.227722,444.762360 372.926239,458.472351 388.458008,467.618805 
	C407.120361,478.608795 426.826050,478.870453 445.255035,468.607208 
	C467.369781,456.291351 477.878662,436.504333 474.972717,410.696411 
	C472.692902,390.448761 461.788269,375.984711 444.271790,366.151215 
	C432.587952,359.592072 419.876923,359.438690 406.089447,360.016632 
	C333.744598,360.012573 261.399750,360.011536 189.054886,359.996307 
	C185.065659,359.995483 181.076477,359.876495 177.041931,358.984863 
	C175.998276,350.498322 174.993546,342.006714 173.898987,333.526764 
	C172.974533,326.364716 171.945938,319.216156 171.901169,312.041931 
	C179.932449,311.647095 187.963715,311.252289 196.700882,310.769562 
	C197.800400,310.456024 198.899918,310.142487 200.900528,309.973022 
	C207.612228,309.628418 214.324692,309.296600 221.033646,308.904663 
	C221.402802,308.883118 221.742752,308.361542 222.835602,308.012177 
	C223.571884,307.951172 224.308167,307.890167 225.942902,307.970978 
	C232.995148,307.334503 240.047394,306.698029 247.838333,306.011841 
	C248.573608,305.952576 249.308884,305.893280 250.942001,305.978638 
	C258.000366,305.335236 265.058716,304.691803 272.936493,304.009308 
	C274.299011,303.948761 275.661530,303.888245 277.912872,303.965210 
	C284.301575,303.618408 290.691162,303.285187 297.076843,302.889618 
	C297.445129,302.866791 297.781952,302.336121 298.968475,302.007538 
	C300.636902,301.944489 302.305359,301.881470 304.850739,301.968597 
	C310.931641,301.337677 317.012543,300.706726 324.000885,300.009735 
	C339.754120,299.002594 355.508148,298.007843 371.260040,296.980316 
	C375.683411,296.691742 380.101044,296.314148 384.520294,295.964478 
	C396.949768,294.980988 409.396179,294.162537 421.797241,292.899170 
	C425.550964,292.516754 429.178406,290.895233 433.462341,289.931335 
	C433.700653,289.620361 433.938965,289.309357 434.521851,288.993896 
	C434.521851,288.993896 434.845825,288.876434 435.556213,288.957336 
	C437.065277,286.983093 438.574341,285.008850 440.019684,283.010437 
	C440.019684,283.010437 440.042358,283.074738 440.734192,282.777161 
	C442.156403,277.083374 443.748718,271.424316 444.921692,265.679626 
	C445.429352,263.193268 445.071899,260.530273 445.032898,257.530640 
	C445.032898,257.530640 445.041107,257.107239 445.541290,256.922058 
	C445.378448,256.587585 445.215607,256.253113 445.024017,255.996414 
	C445.024017,255.996414 445.083588,255.938736 444.981689,255.506805 
M432.912994,138.475235 
	C432.600189,138.382248 432.287415,138.289246 431.368835,137.879974 
	C427.373871,134.242538 423.378906,130.605087 420.103699,127.623009 
	C431.353607,115.934937 441.921936,105.041885 452.380463,94.044426 
	C456.312317,89.909966 461.209320,86.096916 463.501099,81.136909 
	C467.072357,73.407753 464.946381,65.394875 457.405701,59.932365 
	C452.321442,56.249306 441.636841,57.422279 436.408417,62.954288 
	C424.740356,75.299973 412.479828,87.085899 400.452484,99.091667 
	C399.336151,100.206001 398.161469,101.261887 397.121185,102.243668 
	C389.151794,94.761421 381.527466,87.852066 374.198608,80.642349 
	C368.484924,75.021568 363.119476,69.045212 357.635773,63.192680 
	C353.940582,59.248981 349.119415,56.949120 344.050507,57.380653 
	C338.064850,57.890236 332.316193,60.507336 330.234161,66.926735 
	C328.019653,73.754692 327.836426,80.397461 333.682159,86.125420 
	C346.176300,98.367798 358.447754,110.837578 370.791931,123.232620 
	C371.678864,124.123207 372.415710,125.163284 373.339935,126.275375 
	C359.861145,139.727905 346.619568,152.864334 333.474274,166.096436 
	C326.774139,172.840790 327.091919,185.247620 334.494873,190.760269 
	C342.151459,196.461807 349.451996,196.673950 357.726746,188.623932 
	C369.916870,176.764938 381.815277,164.606171 393.853577,152.590790 
	C394.865723,151.580566 395.996399,150.689163 397.719604,149.172562 
	C398.998444,150.816422 399.900574,152.258530 401.069702,153.435349 
	C413.045654,165.490311 425.051575,177.515671 437.078278,189.520050 
	C442.521057,194.952682 451.081085,196.211609 456.909515,192.522964 
	C463.801910,188.160995 467.284943,179.695648 463.681396,172.456009 
	C461.191528,167.453735 456.560883,163.517029 453.000488,158.508469 
	C452.675415,158.311020 452.350311,158.113586 452.024719,157.985779 
	C452.024719,157.985779 452.076508,157.939224 451.796295,157.332474 
	C449.211853,154.863647 446.627441,152.394806 444.011780,149.990250 
	C444.011780,149.990250 444.074982,149.956863 443.823486,149.334915 
	C441.225281,146.874222 438.627045,144.413544 436.000610,141.999588 
	C436.000610,141.999588 436.047607,141.971741 435.826416,141.385345 
	C434.893921,140.569351 433.961426,139.753357 433.004700,138.994370 
	C433.004700,138.994370 433.066559,138.990997 432.912994,138.475235 
z"/>
<path fill="#FCBF4A" opacity="1.000000" stroke="none" 
	d="
M351.818787,231.031052 
	C368.301392,239.738358 386.119080,241.067734 404.195770,239.892914 
	C418.513794,238.962372 432.240509,235.100983 445.209137,228.893768 
	C449.385223,226.894958 449.849609,228.670929 449.360413,232.165634 
	C448.553375,237.930847 447.862823,243.714279 446.932831,249.459213 
	C446.658661,251.152695 445.742676,252.742294 444.905304,254.851273 
	C444.664276,255.613586 444.795532,255.818802 445.083588,255.938736 
	C445.083588,255.938736 445.024017,255.996414 445.025818,256.254730 
	C445.032104,256.711121 445.036621,256.909180 445.041107,257.107239 
	C445.041107,257.107239 445.032898,257.530640 444.826172,258.054871 
	C443.093750,266.744324 441.568054,274.909515 440.042358,283.074738 
	C440.042358,283.074738 440.019684,283.010437 439.688354,283.070129 
	C436.241577,283.780151 434.784882,285.732635 434.845825,288.876434 
	C434.845825,288.876434 434.521851,288.993896 434.103302,289.091003 
	C433.411072,289.405853 433.137390,289.623566 432.863708,289.841278 
	C429.178406,290.895233 425.550964,292.516754 421.797241,292.899170 
	C409.396179,294.162537 396.949768,294.980988 384.520294,295.964478 
	C380.101044,296.314148 375.683411,296.691742 371.260040,296.980316 
	C355.508148,298.007843 339.754120,299.002594 323.074463,300.023804 
	C316.580933,300.026733 311.012878,299.968994 305.448364,300.083496 
	C304.945190,300.093872 304.464783,301.213806 303.973785,301.818451 
	C302.305359,301.881470 300.636902,301.944489 298.074219,302.005920 
	C294.728516,302.010376 292.256195,301.815491 289.830109,302.066772 
	C285.546600,302.510437 281.291199,303.225983 277.024048,303.827698 
	C275.661530,303.888245 274.299011,303.948761 272.051697,304.011536 
	C264.126007,304.620483 257.085083,305.227234 250.044159,305.833984 
	C249.308884,305.893280 248.573608,305.952576 246.995804,306.018127 
	C239.117004,306.626007 232.080719,307.227600 225.044449,307.829224 
	C224.308167,307.890167 223.571884,307.951172 221.993103,308.017517 
	C215.881363,308.018951 210.605408,307.863159 205.346558,308.094818 
	C203.542221,308.174286 201.780594,309.223053 199.999451,309.828979 
	C198.899918,310.142487 197.800400,310.456024 195.990479,310.611572 
	C188.968414,310.322906 182.656616,310.097046 176.345139,310.105194 
	C173.551376,310.108765 171.994995,309.277557 171.719574,306.268646 
	C171.251419,301.153534 170.532410,296.061768 169.950500,290.956573 
	C169.129669,283.755341 168.427399,276.539368 167.510147,269.350647 
	C166.421112,260.815643 164.996353,252.321579 164.006226,243.776276 
	C162.346436,229.451660 160.972275,215.094208 159.372955,200.762283 
	C157.624420,185.093307 155.834320,169.427902 153.872559,153.784729 
	C153.498978,150.805847 152.241272,147.937851 151.286499,144.647614 
	C151.149979,143.511932 151.118439,142.747345 151.304504,141.650238 
	C151.649643,139.513107 151.858612,137.709808 151.886841,135.903687 
	C151.937500,132.662048 151.879562,129.418747 152.340759,126.117416 
	C195.816177,126.032394 238.817810,126.006088 281.819458,125.979782 
	C282.955719,133.890472 283.720764,141.876678 285.311157,149.694992 
	C288.017456,162.998886 293.251984,175.442169 300.545654,186.841110 
	C305.532288,194.634537 311.340607,201.733978 318.160095,208.325989 
	C324.407166,214.364700 331.083618,219.345917 338.728760,224.268555 
	C339.514740,224.725037 339.799805,224.879974 340.114014,224.981277 
	C340.114014,224.981277 340.024902,224.971909 340.118927,225.280045 
	C342.168610,226.375488 344.124237,227.162796 346.079895,227.950104 
	C346.079895,227.950104 346.014679,227.977356 346.069794,228.271759 
	C348.022858,229.387787 349.920837,230.209412 351.818787,231.031052 
z"/>
<path fill="#073C4F" opacity="1.000000" stroke="none" 
	d="
M144.976578,364.007141 
	C143.982727,357.016510 142.893494,350.037842 142.014496,343.032806 
	C140.059433,327.451996 138.191467,311.860199 136.322754,296.268707 
	C134.867203,284.124268 133.472839,271.972504 132.035416,259.825867 
	C130.422836,246.199265 128.713181,232.583603 127.195328,218.946518 
	C126.023773,208.420837 125.180641,197.858658 124.015160,187.332214 
	C122.540749,174.015472 120.887604,160.718506 119.311363,147.413040 
	C117.872261,135.265289 116.430489,123.117867 114.994659,110.969742 
	C114.237701,104.565369 114.071106,98.024048 112.611252,91.784782 
	C110.060936,80.884956 102.585266,74.720627 91.784798,72.077415 
	C74.735649,67.904968 57.794121,63.290146 40.730381,59.180904 
	C29.763414,56.539867 24.901751,48.888676 27.390606,38.199184 
	C28.179712,34.810020 31.849819,32.091648 34.906822,29.019991 
	C36.739620,28.374706 37.867115,27.775738 38.994610,27.176769 
	C39.417526,27.125204 39.840443,27.073637 40.978558,27.013664 
	C42.484131,27.001846 43.274506,26.998430 44.064880,26.995014 
	C44.064880,26.995014 44.556736,27.057056 44.929314,27.306179 
	C46.559711,27.673185 47.817535,27.791069 49.075359,27.908955 
	C49.811768,27.955257 50.548180,28.001558 51.812958,28.265965 
	C52.585587,28.702126 52.861320,28.867811 53.168537,28.981123 
	C64.712433,31.803560 76.278450,34.539375 87.792450,37.478874 
	C95.476082,39.440483 103.339462,41.050892 110.673126,43.953575 
	C124.061478,49.252728 134.198990,58.358334 139.579834,72.121895 
	C140.537262,74.570900 141.641861,76.962349 142.596558,79.953102 
	C142.966583,81.344521 143.418564,82.163208 143.870544,82.981895 
	C143.924896,83.409935 143.979248,83.837975 143.880127,84.789742 
	C144.110367,86.197609 144.494095,87.081749 144.877823,87.965897 
	C144.927414,88.394058 144.977005,88.822220 144.819595,89.887863 
	C144.930634,95.080894 145.047897,99.662651 145.637924,104.182709 
	C146.025909,107.155121 147.095718,110.038528 147.860199,112.961792 
	C147.922592,113.387100 147.984970,113.812401 147.843109,114.873138 
	C148.181900,121.317558 148.724915,127.126526 149.330994,133.088257 
	C149.394043,133.241013 149.185547,133.497452 149.131042,133.918579 
	C149.405548,135.894287 149.734558,137.448883 150.173523,139.292664 
	C150.281982,140.193024 150.280487,140.804184 150.195587,141.836563 
	C150.406494,143.832916 150.700806,145.408035 151.106506,147.403320 
	C155.473938,183.785233 159.696823,219.750992 163.999527,255.707184 
	C166.248459,274.500641 168.637619,293.277344 170.963425,312.061615 
	C171.945938,319.216156 172.974533,326.364716 173.898987,333.526764 
	C174.993546,342.006714 175.998276,350.498322 177.041656,359.671661 
	C177.029648,360.540436 177.017929,360.722443 176.575714,360.919434 
	C169.926300,361.008728 163.679810,360.753693 157.498032,361.271423 
	C153.277466,361.624878 149.147217,363.057190 144.976578,364.007141 
z"/>
<path fill="#E33B46" opacity="1.000000" stroke="none" 
	d="
M452.886932,159.104156 
	C456.560883,163.517029 461.191528,167.453735 463.681396,172.456009 
	C467.284943,179.695648 463.801910,188.160995 456.909515,192.522964 
	C451.081085,196.211609 442.521057,194.952682 437.078278,189.520050 
	C425.051575,177.515671 413.045654,165.490311 401.069702,153.435349 
	C399.900574,152.258530 398.998444,150.816422 397.719604,149.172562 
	C395.996399,150.689163 394.865723,151.580566 393.853577,152.590790 
	C381.815277,164.606171 369.916870,176.764938 357.726746,188.623932 
	C349.451996,196.673950 342.151459,196.461807 334.494873,190.760269 
	C327.091919,185.247620 326.774139,172.840790 333.474274,166.096436 
	C346.619568,152.864334 359.861145,139.727905 373.339935,126.275375 
	C372.415710,125.163284 371.678864,124.123207 370.791931,123.232620 
	C358.447754,110.837578 346.176300,98.367798 333.682159,86.125420 
	C327.836426,80.397461 328.019653,73.754692 330.234161,66.926735 
	C332.316193,60.507336 338.064850,57.890236 344.050507,57.380653 
	C349.119415,56.949120 353.940582,59.248981 357.635773,63.192680 
	C363.119476,69.045212 368.484924,75.021568 374.198608,80.642349 
	C381.527466,87.852066 389.151794,94.761421 397.121185,102.243668 
	C398.161469,101.261887 399.336151,100.206001 400.452484,99.091667 
	C412.479828,87.085899 424.740356,75.299973 436.408417,62.954288 
	C441.636841,57.422279 452.321442,56.249306 457.405701,59.932365 
	C464.946381,65.394875 467.072357,73.407753 463.501099,81.136909 
	C461.209320,86.096916 456.312317,89.909966 452.380463,94.044426 
	C441.921936,105.041885 431.353607,115.934937 420.103699,127.623009 
	C423.378906,130.605087 427.373871,134.242538 431.828033,138.204285 
	C432.516785,138.733673 432.776581,138.887802 433.066559,138.990997 
	C433.066559,138.990997 433.004700,138.994370 433.029846,139.326126 
	C434.052521,140.429169 435.050049,141.200455 436.047607,141.971741 
	C436.047607,141.971741 436.000610,141.999588 436.016785,142.342377 
	C437.379547,146.584503 439.335571,149.809784 444.074982,149.956863 
	C444.074982,149.956863 444.011780,149.990250 444.029724,150.324875 
	C445.315826,154.639099 447.627502,157.467789 452.076508,157.939224 
	C452.076508,157.939224 452.024719,157.985779 452.123901,158.178406 
	C452.395081,158.660049 452.616364,158.904419 452.886932,159.104156 
z"/>
<path fill="#0D4F6B" opacity="1.000000" stroke="none" 
	d="
M407.025024,360.135986 
	C419.876923,359.438690 432.587952,359.592072 444.271790,366.151215 
	C461.788269,375.984711 472.692902,390.448761 474.972717,410.696411 
	C477.878662,436.504333 467.369781,456.291351 445.255035,468.607208 
	C426.826050,478.870453 407.120361,478.608795 388.458008,467.618805 
	C372.926239,458.472351 363.227722,444.762360 360.415802,427.042908 
	C358.644623,415.881744 359.747772,404.555389 364.652802,393.973938 
	C364.904816,393.430328 364.696472,392.673279 364.672211,391.726074 
	C366.013367,390.331940 367.797363,389.488037 368.687622,388.079346 
	C373.516296,380.438477 379.292603,373.754578 387.303772,369.378113 
	C392.761658,366.396454 398.435913,363.810974 404.335327,361.026794 
	C405.446472,360.715485 406.235748,360.425720 407.025024,360.135986 
M418.376251,443.038635 
	C427.426422,442.346527 434.637970,438.241974 439.144623,430.444183 
	C448.877319,413.603729 439.411041,395.486206 419.661926,392.977448 
	C403.145721,390.879333 392.009094,404.454132 392.389130,417.995697 
	C392.773407,431.688354 402.007812,442.261383 418.376251,443.038635 
z"/>
<path fill="#0D4F6B" opacity="1.000000" stroke="none" 
	d="
M144.801056,364.308411 
	C149.147217,363.057190 153.277466,361.624878 157.498032,361.271423 
	C163.679810,360.753693 169.926300,361.008728 176.986542,360.952423 
	C179.195755,361.001038 180.563675,361.031677 182.145508,361.349060 
	C193.639465,366.145294 204.459290,371.327515 211.981339,381.467773 
	C214.627289,385.034698 217.390427,388.514771 220.100052,392.034485 
	C221.759705,398.550262 223.850952,404.991486 224.991333,411.596924 
	C227.552597,426.432831 223.141556,439.821625 214.575073,451.696320 
	C204.608612,465.511658 190.793488,473.062653 173.764038,475.113922 
	C157.131882,477.117310 143.019760,471.951508 130.212738,461.696747 
	C108.903816,444.634399 104.448151,413.004242 116.256996,390.607025 
	C122.554199,378.663422 132.211700,370.048615 144.801056,364.308411 
M169.245285,443.016388 
	C177.868088,442.053925 184.570099,437.873505 189.127396,430.568268 
	C195.188705,420.852081 194.236450,411.126740 187.509659,402.309570 
	C181.050034,393.842590 172.133545,390.801971 161.569183,393.052002 
	C151.552902,395.185242 141.126877,407.973328 142.159378,417.877258 
	C143.592819,431.626984 152.423416,442.906250 169.245285,443.016388 
z"/>
<path fill="#063C50" opacity="1.000000" stroke="none" 
	d="
M220.560944,392.036774 
	C217.390427,388.514771 214.627289,385.034698 211.981339,381.467773 
	C204.459290,371.327515 193.639465,366.145294 182.621582,361.330994 
	C256.593628,361.033539 330.303528,361.040924 404.013428,361.048309 
	C398.435913,363.810974 392.761658,366.396454 387.303772,369.378113 
	C379.292603,373.754578 373.516296,380.438477 368.687622,388.079346 
	C367.797363,389.488037 366.013367,390.331940 364.387634,391.635681 
	C345.519073,391.897644 326.904816,391.993622 308.290497,392.015533 
	C279.200958,392.049744 250.111374,392.033783 220.560944,392.036774 
z"/>
<path fill="#D5B564" opacity="1.000000" stroke="none" 
	d="
M171.432297,312.051758 
	C168.637619,293.277344 166.248459,274.500641 163.999527,255.707184 
	C159.696823,219.750992 155.473938,183.785233 151.190689,147.078949 
	C151.239456,145.895859 151.315460,145.457275 151.391479,145.018707 
	C152.241272,147.937851 153.498978,150.805847 153.872559,153.784729 
	C155.834320,169.427902 157.624420,185.093307 159.372955,200.762283 
	C160.972275,215.094208 162.346436,229.451660 164.006226,243.776276 
	C164.996353,252.321579 166.421112,260.815643 167.510147,269.350647 
	C168.427399,276.539368 169.129669,283.755341 169.950500,290.956573 
	C170.532410,296.061768 171.251419,301.153534 171.719574,306.268646 
	C171.994995,309.277557 173.551376,310.108765 176.345139,310.105194 
	C182.656616,310.097046 188.968414,310.322906 195.637543,310.655518 
	C187.963715,311.252289 179.932449,311.647095 171.432297,312.051758 
z"/>
<path fill="#1B3F48" opacity="1.000000" stroke="none" 
	d="
M404.335327,361.026794 
	C330.303528,361.040924 256.593628,361.033539 182.407654,361.044220 
	C180.563675,361.031677 179.195755,361.001038 177.417023,360.937439 
	C177.017929,360.722443 177.029648,360.540436 177.064316,360.085449 
	C181.076477,359.876495 185.065659,359.995483 189.054886,359.996307 
	C261.399750,360.011536 333.744598,360.012573 406.557251,360.076294 
	C406.235748,360.425720 405.446472,360.715485 404.335327,361.026794 
z"/>
<path fill="#FFFF00" opacity="1.000000" stroke="none" 
	d="
M281.690735,125.566528 
	C238.817810,126.006088 195.816177,126.032394 151.997101,126.063179 
	C150.725677,125.970818 150.271683,125.873970 149.868729,125.552246 
	C149.919785,125.327370 150.067307,124.890404 150.067307,124.890404 
	C191.909988,124.926933 233.752686,124.961441 275.595367,125.006279 
	C277.584259,125.008415 279.573120,125.102180 281.690735,125.566528 
z"/>
<path fill="#F2C46A" opacity="1.000000" stroke="none" 
	d="
M440.388275,282.925964 
	C441.568054,274.909515 443.093750,266.744324 444.863403,258.263306 
	C445.071899,260.530273 445.429352,263.193268 444.921692,265.679626 
	C443.748718,271.424316 442.156403,277.083374 440.388275,282.925964 
z"/>
<path fill="#1F4851" opacity="1.000000" stroke="none" 
	d="
M147.895401,112.521927 
	C147.095718,110.038528 146.025909,107.155121 145.637924,104.182709 
	C145.047897,99.662651 144.930634,95.080894 144.848083,90.209991 
	C146.032578,97.290451 146.981583,104.686256 147.895401,112.521927 
z"/>
<path fill="#F3C570" opacity="1.000000" stroke="none" 
	d="
M200.449982,309.901001 
	C201.780594,309.223053 203.542221,308.174286 205.346558,308.094818 
	C210.605408,307.863159 215.881363,308.018951 221.623444,308.047760 
	C221.742752,308.361542 221.402802,308.883118 221.033646,308.904663 
	C214.324692,309.296600 207.612228,309.628418 200.449982,309.901001 
z"/>
<path fill="#1F4851" opacity="1.000000" stroke="none" 
	d="
M150.024445,124.493805 
	C150.067307,124.890404 149.919785,125.327370 149.597626,125.859802 
	C149.272964,128.573318 149.270462,130.754410 149.267944,132.935501 
	C148.724915,127.126526 148.181900,121.317558 147.882690,115.193161 
	C148.744873,117.950897 149.363235,121.024055 150.024445,124.493805 
z"/>
<path fill="#F1C76A" opacity="1.000000" stroke="none" 
	d="
M225.493683,307.900085 
	C232.080719,307.227600 239.117004,306.626007 246.626465,306.042999 
	C240.047394,306.698029 232.995148,307.334503 225.493683,307.900085 
z"/>
<path fill="#F3C468" opacity="1.000000" stroke="none" 
	d="
M250.493073,305.906311 
	C257.085083,305.227234 264.126007,304.620483 271.641998,304.031067 
	C265.058716,304.691803 258.000366,305.335236 250.493073,305.906311 
z"/>
<path fill="#F2C468" opacity="1.000000" stroke="none" 
	d="
M277.468445,303.896454 
	C281.291199,303.225983 285.546600,302.510437 289.830109,302.066772 
	C292.256195,301.815491 294.728516,302.010376 297.656708,302.023041 
	C297.781952,302.336121 297.445129,302.866791 297.076843,302.889618 
	C290.691162,303.285187 284.301575,303.618408 277.468445,303.896454 
z"/>
<path fill="#F3C162" opacity="1.000000" stroke="none" 
	d="
M304.412262,301.893524 
	C304.464783,301.213806 304.945190,300.093872 305.448364,300.083496 
	C311.012878,299.968994 316.580933,300.026733 322.620728,300.056824 
	C317.012543,300.706726 310.931641,301.337677 304.412262,301.893524 
z"/>
<path fill="#D24D5D" opacity="1.000000" stroke="none" 
	d="
M443.949219,149.645889 
	C439.335571,149.809784 437.379547,146.584503 436.030884,142.319031 
	C438.627045,144.413544 441.225281,146.874222 443.949219,149.645889 
z"/>
<path fill="#D24D5D" opacity="1.000000" stroke="none" 
	d="
M451.936401,157.635849 
	C447.627502,157.467789 445.315826,154.639099 444.045349,150.292725 
	C446.627441,152.394806 449.211853,154.863647 451.936401,157.635849 
z"/>
<path fill="#F2C46A" opacity="1.000000" stroke="none" 
	d="
M435.201019,288.916870 
	C434.784882,285.732635 436.241577,283.780151 439.720215,283.082214 
	C438.574341,285.008850 437.065277,286.983093 435.201019,288.916870 
z"/>
<path fill="#F0C36C" opacity="1.000000" stroke="none" 
	d="
M351.779175,230.680939 
	C349.920837,230.209412 348.022858,229.387787 346.081421,228.238373 
	C347.938477,228.717331 349.839020,229.524078 351.779175,230.680939 
z"/>
<path fill="#F0C36C" opacity="1.000000" stroke="none" 
	d="
M345.930847,227.628143 
	C344.124237,227.162796 342.168610,226.375488 340.124695,225.235611 
	C341.951569,225.690750 343.866699,226.498474 345.930847,227.628143 
z"/>
<path fill="#D24D5D" opacity="1.000000" stroke="none" 
	d="
M435.937012,141.678543 
	C435.050049,141.200455 434.052521,140.429169 433.041931,139.297607 
	C433.961426,139.753357 434.893921,140.569351 435.937012,141.678543 
z"/>
<path fill="#19404D" opacity="1.000000" stroke="none" 
	d="
M48.811523,27.669224 
	C47.817535,27.791069 46.559711,27.673185 45.173004,27.351503 
	C46.211979,27.241634 47.379833,27.335564 48.811523,27.669224 
z"/>
<path fill="#19404D" opacity="1.000000" stroke="none" 
	d="
M38.662674,27.164627 
	C37.867115,27.775738 36.739620,28.374706 35.246742,28.967350 
	C36.031158,28.358177 37.180950,27.755331 38.662674,27.164627 
z"/>
<path fill="#1F4851" opacity="1.000000" stroke="none" 
	d="
M143.883820,82.665253 
	C143.418564,82.163208 142.966583,81.344521 142.686615,80.301743 
	C143.204788,80.834648 143.550949,81.591621 143.883820,82.665253 
z"/>
<path fill="#1F4851" opacity="1.000000" stroke="none" 
	d="
M144.912888,87.635025 
	C144.494095,87.081749 144.110367,86.197609 143.914444,85.111649 
	C144.384171,85.707939 144.666061,86.506050 144.912888,87.635025 
z"/>
<path fill="#19404D" opacity="1.000000" stroke="none" 
	d="
M43.856308,26.764048 
	C43.274506,26.998430 42.484131,27.001846 41.297829,26.995686 
	C41.817181,26.835102 42.732460,26.684092 43.856308,26.764048 
z"/>
<path fill="#F2C46A" opacity="1.000000" stroke="none" 
	d="
M433.163025,289.886292 
	C433.137390,289.623566 433.411072,289.405853 433.931030,289.093262 
	C433.938965,289.309357 433.700653,289.620361 433.163025,289.886292 
z"/>
<path fill="#F2C46A" opacity="1.000000" stroke="none" 
	d="
M445.291199,257.014648 
	C445.036621,256.909180 445.032104,256.711121 445.040161,256.215851 
	C445.215607,256.253113 445.378448,256.587585 445.291199,257.014648 
z"/>
<path fill="#F2C46A" opacity="1.000000" stroke="none" 
	d="
M445.032654,255.722778 
	C444.795532,255.818802 444.664276,255.613586 444.756195,255.207794 
	C444.822571,255.092529 444.981689,255.506805 445.032654,255.722778 
z"/>
<path fill="#F0C36C" opacity="1.000000" stroke="none" 
	d="
M340.024994,224.702682 
	C339.799805,224.879974 339.514740,224.725037 339.086121,224.342133 
	C339.254272,224.253220 339.595123,224.338654 340.024994,224.702682 
z"/>
<path fill="#D24D5D" opacity="1.000000" stroke="none" 
	d="
M452.943726,158.806305 
	C452.616364,158.904419 452.395081,158.660049 452.124146,158.143585 
	C452.350311,158.113586 452.675415,158.311020 452.943726,158.806305 
z"/>
<path fill="#D24D5D" opacity="1.000000" stroke="none" 
	d="
M432.989777,138.733124 
	C432.776581,138.887802 432.516785,138.733673 432.130920,138.362427 
	C432.287415,138.289246 432.600189,138.382248 432.989777,138.733124 
z"/>
<path fill="#19404D" opacity="1.000000" stroke="none" 
	d="
M53.023808,28.777901 
	C52.861320,28.867811 52.585587,28.702126 52.179821,28.305145 
	C52.372505,28.146496 52.659428,28.295982 53.023808,28.777901 
z"/>
<path fill="#D5B564" opacity="1.000000" stroke="none" 
	d="
M149.330994,133.088257 
	C149.270462,130.754410 149.272964,128.573318 149.546570,126.084679 
	C150.271683,125.873970 150.725677,125.970818 151.523346,126.121895 
	C151.879562,129.418747 151.937500,132.662048 151.886841,135.903687 
	C151.858612,137.709808 151.649643,139.513107 151.105164,141.504669 
	C150.688187,141.691635 150.279007,141.415344 150.279007,141.415344 
	C150.280487,140.804184 150.281982,140.193024 150.242493,138.892303 
	C149.862869,136.634308 149.524200,135.065887 149.185547,133.497452 
	C149.185547,133.497452 149.394043,133.241013 149.330994,133.088257 
z"/>
<path fill="#1F4851" opacity="1.000000" stroke="none" 
	d="
M150.195587,141.836563 
	C150.279007,141.415344 150.688187,141.691635 150.887543,141.837204 
	C151.118439,142.747345 151.149979,143.511932 151.286499,144.647614 
	C151.315460,145.457275 151.239456,145.895859 151.079285,146.658798 
	C150.700806,145.408035 150.406494,143.832916 150.195587,141.836563 
z"/>
<path fill="#1F4851" opacity="1.000000" stroke="none" 
	d="
M149.131042,133.918579 
	C149.524200,135.065887 149.862869,136.634308 150.132553,138.603104 
	C149.734558,137.448883 149.405548,135.894287 149.131042,133.918579 
z"/>
<path fill="#000000" opacity="1.000000" stroke="none" 
	d="
M417.937927,443.041931 
	C402.007812,442.261383 392.773407,431.688354 392.389130,417.995697 
	C392.009094,404.454132 403.145721,390.879333 419.661926,392.977448 
	C439.411041,395.486206 448.877319,413.603729 439.144623,430.444183 
	C434.637970,438.241974 427.426422,442.346527 417.937927,443.041931 
z"/>
<path fill="#000000" opacity="1.000000" stroke="none" 
	d="
M168.808105,443.024231 
	C152.423416,442.906250 143.592819,431.626984 142.159378,417.877258 
	C141.126877,407.973328 151.552902,395.185242 161.569183,393.052002 
	C172.133545,390.801971 181.050034,393.842590 187.509659,402.309570 
	C194.236450,411.126740 195.188705,420.852081 189.127396,430.568268 
	C184.570099,437.873505 177.868088,442.053925 168.808105,443.024231 
z"/>
</svg>